<svg width="600" height="93" viewBox="0 0 600 93" fill="none" xmlns="http://www.w3.org/2000/svg">
<g clip-path="url(#clip0_2761_490)">
<path d="M451.488 16.8673C448.526 20.3167 448.988 23.5218 452.71 25.749C453.308 26.1021 453.362 26.3465 453.145 26.9712C452.761 27.8704 452.639 28.8598 452.792 29.8253C452.946 30.7909 453.37 31.6933 454.015 32.4286C454.659 33.1639 455.499 33.7021 456.436 33.9812C457.373 34.2603 458.371 34.2689 459.313 34.006C459.883 34.006 460.155 34.006 460.209 34.6307C460.251 35.7342 460.65 36.7943 461.346 37.6521C462.042 38.5099 462.997 39.1191 464.068 39.3884C465.139 39.6576 466.269 39.5725 467.288 39.1456C468.307 38.7188 469.16 37.9733 469.719 37.0209C472.653 43.8655 471.132 57.4733 460.671 66.4365C455.509 70.7316 449.024 73.1171 442.309 73.1913C435.593 73.2655 429.057 71.0239 423.801 66.8439C418.283 62.4313 414.573 56.1511 413.371 49.1899C412.17 42.2287 413.56 35.0686 417.28 29.0627C420.693 23.3899 425.966 19.0745 432.203 16.8509C438.44 14.6274 445.255 14.6332 451.488 16.8673ZM451.026 44.1915C451.031 42.421 450.512 40.6887 449.533 39.213C448.555 37.7372 447.161 36.5842 445.528 35.8993C443.895 35.2144 442.096 35.0284 440.357 35.3646C438.618 35.7008 437.018 36.5442 435.758 37.7885C434.498 39.0328 433.635 40.6222 433.278 42.3562C432.92 44.0903 433.085 45.8912 433.75 47.532C434.416 49.1727 435.552 50.5797 437.016 51.5755C438.481 52.5714 440.207 53.1114 441.978 53.1275C444.355 53.1137 446.632 52.1712 448.322 50.5014C450.013 48.8316 450.983 46.5669 451.026 44.1915Z" fill="#BD4C00"/>
<path d="M8.91183 72.1676C6.76145 72.3343 4.609 71.8719 2.71702 70.8367C1.54719 70.034 0.737823 68.8057 0.461894 67.4144C0.184816 66.0181 0.030264 64.6003 0 63.1772L0 12.7117C0.00287724 11.2999 0.130164 9.89113 0.380383 8.50169C0.689452 7.11708 1.52809 5.90828 2.71702 5.1337C4.64085 4.10487 6.81738 3.64334 8.99334 3.8028H28.4744C31.2187 3.89231 33.9283 4.44324 36.4896 5.43247C39.4555 6.49644 42.2136 8.06806 44.6407 10.077C47.2707 12.2175 49.4266 14.8814 50.9713 17.8995C52.6794 21.3674 53.5186 25.1985 53.4167 29.0627C53.5107 32.8826 52.6713 36.6678 50.9713 40.0902C49.4377 43.1078 47.2798 45.765 44.6407 47.8854C42.1997 49.8606 39.4444 51.4122 36.4896 52.4757C33.8779 53.4388 31.1219 53.9531 28.3385 53.9967H17.9052V63.3673C17.9082 64.7806 17.7717 66.1908 17.4976 67.5773C17.3689 68.2586 17.1055 68.9073 16.7229 69.4856C16.3404 70.0639 15.8463 70.5602 15.2697 70.9453C13.3149 71.9638 11.105 72.3886 8.91183 72.1676ZM17.9052 35.9888H28.4744C29.4862 35.9467 30.4813 35.7164 31.4088 35.3098C32.5655 34.851 33.5786 34.0914 34.3432 33.1097C35.2443 31.8671 35.686 30.3503 35.593 28.8183C35.6059 27.5589 35.2829 26.3188 34.6574 25.2256C34.0318 24.1325 33.1262 23.2256 32.0337 22.5984C30.905 22.0011 29.6425 21.702 28.3657 21.7292H17.9052V35.9888Z" fill="#4A714C"/>
<path d="M80.3695 73.1451C77.2471 73.125 74.1574 72.5073 71.2675 71.3253C68.1659 70.1095 65.3049 68.353 62.8175 66.1375C60.2198 63.8772 58.1197 61.1026 56.6499 57.9891C55.0827 54.6899 54.2926 51.0755 54.3404 47.4234C54.311 43.9566 55.0147 40.5226 56.4054 37.3466C59.1099 31.1494 64.0464 26.1952 70.235 23.4672C73.3687 22.091 76.7566 21.3877 80.1793 21.403C84.7795 21.3511 89.307 22.553 93.2754 24.8796C97.1447 27.1548 100.378 30.3683 102.676 34.2231C105.025 38.1825 106.237 42.712 106.181 47.3148C106.232 51.0661 105.433 54.7802 103.845 58.1793C102.352 61.2788 100.255 64.0492 97.6769 66.3276C95.2159 68.5036 92.3806 70.2153 89.3085 71.3796C86.4612 72.5071 83.4318 73.1054 80.3695 73.1451ZM80.1793 55.2458C81.3375 55.2075 82.4791 54.959 83.5484 54.5125C84.8859 54.0023 86.0598 53.1386 86.9447 52.0137C87.9575 50.633 88.4571 48.9425 88.3575 47.2333C88.4082 45.765 88.0609 44.3104 87.3522 43.0233C86.6554 41.8647 85.6484 40.924 84.445 40.3072C83.1168 39.6318 81.6419 39.2958 80.1521 39.3294C78.779 39.3167 77.4277 39.6732 76.2396 40.3615C75.1222 41.0271 74.1884 41.9606 73.5226 43.0776C72.7835 44.336 72.4074 45.7743 72.4358 47.2333C72.3546 48.9069 72.8325 50.5599 73.7943 51.9322C74.6325 53.0358 75.7481 53.898 77.0276 54.431C78.0222 54.8854 79.089 55.1612 80.1793 55.2458Z" fill="#4A714C"/>
<path d="M134.547 72.7378C131.649 72.7061 128.779 72.1636 126.07 71.1353C123.043 70.0176 120.223 68.4018 117.729 66.3549C114.913 64.0621 112.658 61.1584 111.132 57.8641C109.607 54.5698 108.852 50.9714 108.926 47.3421C108.825 43.7142 109.562 40.1119 111.08 36.8147C112.597 33.5175 114.853 30.6139 117.674 28.3292C120.159 26.2895 122.97 24.6826 125.988 23.576C128.665 22.5665 131.496 22.0245 134.357 21.9735C136.529 21.94 138.696 22.2051 140.796 22.7612C142.354 23.1645 143.866 23.7289 145.306 24.4452C146.475 25.0699 147.317 25.5316 147.833 25.8576C149.135 26.6512 150.362 27.5602 151.501 28.5737C152.065 29.0766 152.51 29.6977 152.806 30.3925C153.102 31.0874 153.241 31.8389 153.213 32.5936C153.219 33.5214 153.054 34.4424 152.724 35.3097C152.31 36.3552 151.791 37.3562 151.175 38.2974C148.811 41.8827 146.475 43.7297 144.138 43.7297C143.204 43.7427 142.278 43.5576 141.421 43.1864C140.667 42.8502 139.948 42.4409 139.275 41.9642C138.603 41.499 137.894 41.0902 137.155 40.7419C136.3 40.3667 135.373 40.1814 134.438 40.1987C133.158 40.1876 131.9 40.5256 130.798 41.1765C129.678 41.8393 128.744 42.7734 128.081 43.8926C127.422 45.0011 127.083 46.2703 127.102 47.5594C127.083 48.8657 127.421 50.1523 128.081 51.2805C128.729 52.4111 129.667 53.3486 130.798 53.9966C131.834 54.6385 133.029 54.9773 134.248 54.9744C135.027 54.9947 135.805 54.9032 136.558 54.7028C137.057 54.5544 137.533 54.3348 137.97 54.0509C138.148 53.9062 138.35 53.7957 138.568 53.725C139.465 53.1818 140.334 52.6929 141.149 52.2583C141.907 51.8092 142.769 51.5657 143.649 51.5521C144.889 51.5961 146.085 52.0231 147.073 52.7743C148.555 53.9072 149.872 55.242 150.985 56.7399C152.18 58.08 152.98 59.7255 153.294 61.4931C153.356 62.8197 152.952 64.126 152.153 65.187C151.003 66.6728 149.572 67.9185 147.942 68.8538C147.752 68.9896 147.073 69.3698 145.959 69.9674C144.496 70.7121 142.968 71.3212 141.394 71.7872C139.174 72.4539 136.865 72.7746 134.547 72.7378Z" fill="#4A714C"/>
<path d="M200.625 56.1151C202.619 57.6088 203.992 59.7844 204.483 62.2263C204.424 63.4946 204.102 64.7366 203.536 65.8731C202.97 67.0096 202.173 68.0155 201.195 68.8265C199.918 70.2917 198.379 71.5073 196.658 72.4118C196.064 72.6795 195.421 72.8179 194.77 72.8179C194.119 72.8179 193.475 72.6795 192.881 72.4118C191.276 71.5913 189.794 70.5489 188.48 69.3154L176.443 58.0707V63.5029C176.442 64.9147 176.314 66.3236 176.063 67.7129C175.794 69.0493 175.014 70.2281 173.889 70.9994C171.948 72.0009 169.763 72.434 167.586 72.2488C165.412 72.4257 163.233 71.9731 161.31 70.9451C160.739 70.5562 160.251 70.0585 159.873 69.4805C159.495 68.9026 159.236 68.2557 159.109 67.5771C158.89 66.1845 158.781 64.7768 158.783 63.3671V9.04469C158.766 7.61408 158.893 6.18543 159.163 4.78037C159.282 4.08461 159.54 3.42014 159.923 2.82721C160.306 2.23428 160.806 1.72524 161.391 1.3309C163.294 0.271348 165.471 -0.192327 167.64 1.45739e-06C169.81 -0.192327 171.987 0.271348 173.889 1.3309C175.027 2.13064 175.815 3.33605 176.09 4.69889C176.344 6.11527 176.471 7.55142 176.471 8.99036V35.9886L184.785 27.8402C186.05 26.5544 187.542 25.5138 189.186 24.771C190.493 24.2425 191.955 24.2425 193.262 24.771C194.903 25.4859 196.354 26.5741 197.5 27.9489C199.462 29.6218 200.731 31.965 201.06 34.5219C200.59 36.9101 199.29 39.0554 197.392 40.5788L189.567 47.5321L200.625 56.1151Z" fill="#4A714C"/>
<path d="M231.952 73.3353C227.679 73.4639 223.43 72.6477 219.508 70.9452C216.355 69.4906 213.57 67.3464 211.357 64.6709C209.32 62.2016 207.763 59.3735 206.765 56.3324C205.821 53.5213 205.326 50.5789 205.298 47.6137C205.2 42.8617 206.382 38.1708 208.722 34.0331C210.977 30.1518 214.258 26.9661 218.204 24.8254C222.461 22.5738 227.218 21.4339 232.034 21.5118C235.593 21.4172 239.132 22.0839 242.413 23.4674C245.068 24.6206 247.448 26.324 249.395 28.465C251.112 30.3418 252.458 32.5258 253.362 34.9022C254.159 36.9291 254.591 39.0807 254.639 41.258C254.857 44.3352 253.885 47.3786 251.922 49.7594C251.027 50.7222 249.935 51.4822 248.722 51.9882C247.508 52.4942 246.2 52.7344 244.885 52.6928H224.018C224.263 53.7406 224.822 54.6884 225.622 55.4089C226.511 56.2187 227.569 56.8217 228.719 57.1744C230.004 57.617 231.354 57.8375 232.713 57.8263C233.994 57.8368 235.274 57.7551 236.544 57.5818C237.518 57.4848 238.482 57.303 239.424 57.0386C240.239 56.7942 241 56.5226 241.679 56.2509L243.527 55.6262C244.056 55.4674 244.605 55.3851 245.157 55.3818C246.33 55.3808 247.466 55.7945 248.363 56.5497C249.512 57.518 250.439 58.7223 251.08 60.0807C251.484 60.8432 251.812 61.6438 252.058 62.4709C252.235 63.154 252.326 63.8566 252.33 64.5623C252.343 65.5075 252.133 66.4425 251.717 67.2918C251.302 68.141 250.693 68.8808 249.939 69.4513C247.896 70.9602 245.536 71.9821 243.038 72.439C239.386 73.1431 235.669 73.4436 231.952 73.3353ZM224.018 43.458H234.887C235.245 43.4966 235.607 43.4636 235.952 43.361C236.297 43.2584 236.618 43.0883 236.897 42.8605C237.121 42.6333 237.293 42.3602 237.401 42.06C237.509 41.7599 237.55 41.4399 237.522 41.1221C237.546 40.3333 237.286 39.562 236.788 38.9493C236.255 38.3464 235.57 37.8964 234.805 37.6455C233.822 37.3338 232.793 37.1869 231.762 37.2109C230.339 37.1729 228.929 37.4903 227.659 38.1344C226.569 38.6687 225.634 39.4728 224.942 40.4703C224.376 41.3671 224.057 42.398 224.018 43.458Z" fill="#4A714C"/>
<path d="M295.476 25.3141C295.094 24.7406 294.602 24.2484 294.028 23.8661C293.455 23.4838 292.811 23.219 292.134 23.0869C290.775 22.8134 289.391 22.6769 288.004 22.6795L282.842 22.8696V15.0472C282.835 13.642 282.689 12.241 282.407 10.8644C282.279 10.1761 282.013 9.52076 281.625 8.93745C281.238 8.35414 280.737 7.85481 280.152 7.46922C278.278 6.4403 276.142 5.9868 274.012 6.16548C271.848 5.99702 269.678 6.41949 267.735 7.38773C267.17 7.73099 266.678 8.18433 266.291 8.72088C265.904 9.25742 265.628 9.86625 265.48 10.5113C265.223 11.8814 265.095 13.2728 265.1 14.6669V23.1684H263.035C262.142 23.1094 261.248 23.2719 260.432 23.6415C259.617 24.0111 258.906 24.5764 258.362 25.287C257.174 27.1639 256.621 29.3733 256.786 31.5884C256.637 33.8151 257.098 36.0403 258.117 38.0256C258.648 38.7343 259.343 39.3028 260.143 39.6815C260.944 40.0602 261.824 40.2377 262.709 40.1985H265.154V52.6112C265.1 55.5547 265.513 58.4883 266.377 61.3027C267.08 63.6496 268.369 65.7789 270.123 67.4896C271.877 69.2004 274.038 70.4363 276.403 71.0808C279.326 71.9146 282.357 72.3082 285.396 72.2487C286.77 72.2493 288.142 72.1403 289.499 71.9228C290.187 71.8012 290.844 71.5441 291.431 71.1664C292.019 70.7887 292.526 70.2979 292.922 69.7227C294.006 67.8188 294.489 65.6317 294.308 63.4485C294.462 61.5219 294.067 59.5911 293.167 57.8804C292.818 57.3412 292.359 56.8813 291.821 56.5304C291.283 56.1795 290.677 55.9454 290.042 55.8433C288.547 55.5569 287.027 55.4205 285.505 55.4359C285.071 55.4541 284.638 55.3896 284.228 55.2458C283.913 55.127 283.639 54.9195 283.44 54.6482C283.219 54.3115 283.07 53.9322 283.005 53.5346C282.942 52.9297 282.942 52.3198 283.005 51.7148V40.3614H288.086C289.513 40.3693 290.936 40.2051 292.324 39.8725C293.692 39.5393 294.884 38.7058 295.666 37.5367C296.676 35.7152 297.13 33.6377 296.971 31.5612C297.072 29.3796 296.554 27.2138 295.476 25.3141Z" fill="#4A714C"/>
<path d="M335.525 73.3353C332.65 73.2897 329.792 72.879 327.021 72.113C323.719 71.231 320.542 69.935 317.566 68.2561C314.335 66.4319 311.403 64.1235 308.871 61.4115C306.151 58.4716 303.995 55.0556 302.513 51.3347C300.837 47.0072 300.025 42.3935 300.122 37.7541C300 33.201 300.814 28.6713 302.513 24.4451C303.994 20.8252 306.131 17.5101 308.817 14.667C311.335 12.0408 314.262 9.83945 317.484 8.14836C320.493 6.49783 323.697 5.22954 327.021 4.37295C329.893 3.59973 332.85 3.18912 335.824 3.15069C338.804 3.10294 341.773 3.51521 344.627 4.37295C346.771 5.01779 348.846 5.873 350.822 6.9261C352.425 7.79526 353.539 8.36565 353.811 8.63726C355.099 9.45097 356.325 10.3588 357.479 11.3534C358.046 11.8646 358.494 12.4949 358.79 13.1992C359.086 13.9034 359.223 14.6644 359.19 15.4276C359.197 16.3606 359.012 17.285 358.647 18.1437C358.229 19.1127 357.69 20.0253 357.044 20.8598C356.037 22.382 354.8 23.7382 353.376 24.8797C352.421 25.6595 351.239 26.1076 350.007 26.1562C349.155 26.1585 348.316 25.9534 347.561 25.5587C346.628 25.0542 345.721 24.5011 344.844 23.9019C344.287 23.4978 343.706 23.126 343.106 22.7882C342.126 22.3186 341.096 21.9631 340.035 21.729C337.278 21.0645 334.408 21.0195 331.631 21.5972C328.855 22.1749 326.241 23.3609 323.978 25.0698C322.156 26.4682 320.686 28.2725 319.685 30.3391C318.517 32.7966 317.949 35.4961 318.027 38.2158C317.944 40.9594 318.532 43.6818 319.739 46.1469C320.785 48.1848 322.27 49.9658 324.086 51.3618C325.777 52.6642 327.68 53.6658 329.711 54.3224C331.465 54.9038 333.297 55.2152 335.145 55.2459C336.588 55.2764 338.03 55.1305 339.438 54.8113C340.544 54.5367 341.611 54.1261 342.616 53.5891C343.567 53.073 344.437 52.5569 345.334 52.0409C346.073 51.5007 346.865 51.0366 347.697 50.6556C348.489 50.2865 349.351 50.0919 350.224 50.0853C351.464 50.1262 352.649 50.6077 353.566 51.4433C354.939 52.6633 356.12 54.0825 357.071 55.6533C357.728 56.612 358.275 57.6415 358.701 58.7225C359.047 59.587 359.231 60.5077 359.245 61.4387C359.274 62.1775 359.135 62.9134 358.838 63.5909C358.542 64.2684 358.096 64.8698 357.533 65.3499C356.389 66.3565 355.162 67.2651 353.865 68.066C353.403 68.3104 352.425 68.908 350.931 69.8315C349.005 70.9024 346.963 71.7499 344.844 72.3575C341.805 73.1507 338.663 73.4803 335.525 73.3353Z" fill="#4A714C"/>
<path d="M371.471 72.2489C369.306 72.4299 367.135 71.9769 365.222 70.9452C364.643 70.5656 364.149 70.0705 363.77 69.4909C363.391 68.9114 363.136 68.2598 363.021 67.5772C362.78 66.1869 362.662 64.7782 362.668 63.3672V9.04476C362.661 7.62227 362.798 6.20271 363.076 4.80761C363.203 4.13334 363.469 3.49292 363.857 2.9271C364.246 2.36128 364.747 1.88246 365.331 1.5211C367.251 0.513291 369.418 0.0706361 371.58 0.244527C373.74 0.0577178 375.907 0.521219 377.802 1.57543C378.937 2.34895 379.718 3.54054 379.976 4.88909C380.25 6.27556 380.387 7.68575 380.383 9.09908V26.8897C381.598 25.8366 382.929 24.9254 384.35 24.1736C386.134 23.2085 388.137 22.7219 390.165 22.7612C394.159 22.7041 398.078 23.8492 401.413 26.0477C404.774 28.2619 407.499 31.3138 409.319 34.9022C411.335 38.7924 412.344 43.1251 412.254 47.505V63.5301C412.267 64.9246 412.14 66.3169 411.873 67.6858C411.592 69.0387 410.805 70.2334 409.673 71.0266C407.744 72.0673 405.553 72.5205 403.369 72.3304C401.22 72.4972 399.066 72.0647 397.147 71.081C396.558 70.7101 396.052 70.2222 395.659 69.6475C395.266 69.0728 394.996 68.4236 394.865 67.7401C394.585 66.2904 394.448 64.8166 394.457 63.34V47.3149C394.492 46.0502 394.232 44.7948 393.697 43.6481C393.175 42.6622 392.396 41.8361 391.442 41.258C390.362 40.6602 389.143 40.3602 387.909 40.3888C386.141 40.3846 384.42 40.9673 383.019 42.0456C381.647 42.9055 380.67 44.2722 380.302 45.8482V63.4487C380.305 64.862 380.168 66.2721 379.894 67.6587C379.774 68.3327 379.52 68.9759 379.147 69.5498C378.773 70.1237 378.288 70.6167 377.721 70.9995C375.794 71.9882 373.63 72.4208 371.471 72.2489Z" fill="#4A714C"/>
<path d="M481.103 72.2488C478.938 72.425 476.768 71.9723 474.854 70.945C474.275 70.5655 473.78 70.0704 473.402 69.4908C473.023 68.9112 472.768 68.2597 472.653 67.577C472.425 66.1851 472.307 64.7775 472.3 63.3671V31.3983C472.311 29.974 472.466 28.5545 472.762 27.1612C472.895 26.4891 473.164 25.8512 473.551 25.2862C473.939 24.7212 474.438 24.241 475.017 23.8746C476.977 22.8715 479.18 22.4386 481.375 22.6252C483.633 22.475 485.872 23.1188 487.705 24.445C488.42 25.1463 488.971 25.9969 489.319 26.9361C489.667 27.8752 489.802 28.8796 489.716 29.8773L488.059 29.3884C488.917 28.1661 489.881 27.021 490.939 25.9661C491.989 24.9696 493.19 24.1447 494.498 23.5216C495.963 22.8179 497.573 22.4646 499.198 22.4894C501.084 22.4745 502.961 22.74 504.768 23.2771C506.449 23.7867 508.023 24.5966 509.414 25.6673C510.853 26.7722 512.093 28.113 513.082 29.6328C513.991 28.5876 514.971 27.6074 516.017 26.6994C517.358 25.5192 518.858 24.5318 520.473 23.766C522.287 22.899 524.276 22.4621 526.287 22.4894C529.796 22.383 533.246 23.4119 536.123 25.4228C538.973 27.5858 541.119 30.5439 542.29 33.9243C543.789 38.2909 544.498 42.8897 544.382 47.5049V63.4485C544.38 64.8603 544.252 66.2691 544.002 67.6585C543.713 69.03 542.905 70.2367 541.747 71.0265C539.795 72.0583 537.589 72.5107 535.389 72.3303C533.208 72.5199 531.02 72.0465 529.113 70.9722C527.963 70.1595 527.174 68.9326 526.912 67.5499C526.692 66.1574 526.583 64.7496 526.586 63.3399V47.3148C526.618 46.008 526.435 44.7048 526.042 43.4579C525.765 42.5532 525.215 41.7563 524.467 41.1763C523.724 40.6223 522.811 40.3439 521.885 40.3887C520.932 40.3338 519.984 40.5706 519.168 41.0677C518.437 41.6069 517.918 42.3854 517.701 43.2678C517.366 44.6265 517.22 46.0248 517.267 47.4234V63.3671C517.268 64.7803 517.131 66.1903 516.859 67.577C516.727 68.2573 516.463 68.9049 516.08 69.4828C515.698 70.0608 515.206 70.5576 514.631 70.945C512.679 71.9769 510.473 72.4292 508.273 72.2488C506.092 72.4384 503.904 71.9651 501.997 70.8907C500.847 70.078 500.058 68.8511 499.796 67.4684C499.576 66.0759 499.467 64.6681 499.47 63.2584V47.3148C499.498 45.9942 499.333 44.6766 498.981 43.4036C498.737 42.4972 498.203 41.6957 497.459 41.122C496.655 40.5941 495.703 40.3372 494.742 40.3887C494.213 40.3484 493.681 40.4142 493.177 40.5821C492.673 40.75 492.208 41.0166 491.808 41.3665C491.135 42.0665 490.674 42.9421 490.477 43.8925C490.253 45.0193 490.144 46.1659 490.151 47.3148V63.4485C490.154 64.8619 490.017 66.272 489.743 67.6585C489.618 68.3408 489.353 68.9899 488.965 69.5649C488.577 70.1398 488.074 70.6282 487.488 70.9994C485.519 72.0076 483.306 72.4406 481.103 72.2488Z" fill="#4A714C"/>
<path d="M598.125 38.0255C596.913 35.1188 595.193 32.4515 593.044 30.1487C590.957 27.9218 588.492 26.0826 585.763 24.7165C583.178 23.3696 580.309 22.6618 577.394 22.6522C573.9 22.5027 570.466 23.5895 567.694 25.7215C567.024 24.7314 566.08 23.9576 564.977 23.4942C563.163 22.8196 561.234 22.5059 559.299 22.5708C557.177 22.3975 555.052 22.8508 553.186 23.8745C552.629 24.2537 552.152 24.7393 551.784 25.3033C551.415 25.8674 551.162 26.4987 551.039 27.161C550.817 28.5168 550.708 29.8886 550.713 31.2623V84.3897C550.708 85.7634 550.817 87.1353 551.039 88.491C551.162 89.1527 551.421 89.7816 551.8 90.338C552.179 90.8944 552.669 91.3661 553.24 91.7232C555.134 92.7215 557.272 93.164 559.408 92.9998C561.569 93.1737 563.736 92.731 565.657 91.7232C566.83 90.9755 567.661 89.794 567.966 88.4367C568.267 87.0731 568.35 85.6705 568.211 84.281V68.5004C568.537 68.7176 568.836 68.9349 569.189 69.1251C571.745 70.4824 574.609 71.1561 577.503 71.0807C580.42 71.0808 583.302 70.4508 585.953 69.2337C588.668 67.9859 591.128 66.2453 593.207 64.1002C595.343 61.891 597.048 59.3025 598.234 56.4679C599.471 53.57 600.108 50.4518 600.108 47.301C600.108 44.1503 599.471 41.0321 598.234 38.1341L598.125 38.0255ZM581.198 50.7913C580.579 51.8983 579.691 52.8322 578.617 53.5074C577.545 54.1581 576.312 54.4968 575.058 54.4852C573.846 54.4964 572.657 54.1568 571.634 53.5074C570.574 52.8235 569.697 51.8911 569.08 50.7913C568.437 49.7458 568.098 48.5419 568.102 47.3146C568.082 46.0754 568.401 44.8543 569.026 43.7837C569.654 42.7431 570.532 41.875 571.58 41.2577C572.651 40.6042 573.884 40.2653 575.139 40.2799C576.395 40.2634 577.633 40.5821 578.726 41.2033C579.789 41.8267 580.669 42.7206 581.275 43.794C581.881 44.8674 582.192 46.0821 582.176 47.3146C582.2 48.5787 581.861 49.8231 581.198 50.8999V50.7913Z" fill="#4A714C"/>
</g>
<defs>
<clipPath id="clip0_2761_490">
<rect width="600" height="93" fill="white"/>
</clipPath>
</defs>
</svg>
